<?xml version="1.0" encoding="UTF-8"?>
<svg version="1.1" xmlns="http://www.w3.org/2000/svg" width="506" height="142">
<path d="M0 0 C0.598125 0.391875 1.19625 0.78375 1.8125 1.1875 C4.2296111 4.87677483 4.28169607 8.93917083 3.703125 13.171875 C2.06109443 19.42934283 -1.63922125 23.31692088 -6.13671875 27.8359375 C-8.32623975 29.90295433 -8.32623975 29.90295433 -8 33 C-6.10959527 34.92045886 -4.21723755 36.67575013 -2.1875 38.4375 C23.51106042 61.5440777 23.51106042 61.5440777 26.51147461 74.14868164 C26.67268799 74.7596167 26.83390137 75.37055176 27 76 C28.74503316 76.96506443 28.74503316 76.96506443 30.9375 77.4375 C36.30930772 78.99204243 41.06815067 81.3950775 46 84 C46 84.33 46 84.66 46 85 C41.38 85 36.76 85 32 85 C32.474375 86.670625 32.94875 88.34125 33.4375 90.0625 C37.01282954 103.31820293 37.7643418 117.54637093 31.93359375 130.33984375 C29.85910403 133.68778261 28.24846624 134.92013585 24.5 136.125 C20.43569573 135.97984628 19.09241762 135.61666106 16 133 C10.53852578 127.05810519 8.2323969 120.7775115 6 113.125 C5.3239941 110.90722338 4.64690163 108.68977769 3.96875 106.47265625 C3.64003906 105.38227051 3.31132813 104.29188477 2.97265625 103.16845703 C1.33783212 97.84296817 -0.46651172 92.57618837 -2.2734375 87.30712891 C-4 82.20867714 -4 82.20867714 -4 80 C-22.6665523 81.61556416 -41.1490709 84.0496903 -59 90 C-60.26875131 91.86769094 -60.26875131 91.86769094 -61.32836914 94.22851562 C-61.76214371 95.12614624 -62.19591827 96.02377686 -62.64283752 96.9486084 C-63.1023027 97.92463013 -63.56176788 98.90065186 -64.03515625 99.90625 C-64.51448105 100.9012854 -64.99380585 101.8963208 -65.48765564 102.92150879 C-67.02226131 106.10981116 -68.54331833 109.30432282 -70.0625 112.5 C-71.58662204 115.6949741 -73.11364322 118.88844586 -74.64805603 122.07849121 C-75.60376048 124.06641603 -76.55326524 126.057335 -77.49610901 128.0513916 C-77.92673141 128.94902222 -78.35735382 129.84665283 -78.80102539 130.77148438 C-79.36703209 131.9627594 -79.36703209 131.9627594 -79.94447327 133.17810059 C-81 135 -81 135 -83 136 C-81.17244175 122.21024231 -78.87973819 108.60932111 -76 95 C-77.01320313 94.81824219 -77.01320313 94.81824219 -78.046875 94.6328125 C-78.93890625 94.46523437 -79.8309375 94.29765625 -80.75 94.125 C-81.63171875 93.96257812 -82.5134375 93.80015625 -83.421875 93.6328125 C-87.71321322 92.57948403 -89.50857731 91.73713403 -92 88 C-92.97801559 82.00965453 -91.00250216 78.25444258 -87.828125 73.359375 C-82.82573477 66.90329873 -75.4264703 63.11966968 -68 60 C-67.34 60 -66.68 60 -66 60 C-65.86464844 59.46375 -65.72929688 58.9275 -65.58984375 58.375 C-61.81643728 44.63708901 -55.30707066 32.1519762 -48 20 C-47.01 18.35 -46.02 16.7 -45 15 C-48.63 10.05 -52.26 5.1 -56 0 C-51.78475431 0 -49.20136304 2.23622589 -45.8125 4.5 C-45.15830078 4.92925781 -44.50410156 5.35851563 -43.83007812 5.80078125 C-42.21603678 6.86110038 -40.60748119 7.92976153 -39 9 C-38.43152344 8.61328125 -37.86304688 8.2265625 -37.27734375 7.828125 C-26.35603021 0.46216395 -12.84490715 -8.45884129 0 0 Z M-26.8203125 46.625 C-27.92696886 47.74498957 -29.0283192 48.87024066 -30.125 50 C-30.96998047 50.85851563 -30.96998047 50.85851563 -31.83203125 51.734375 C-33.22586268 53.15183069 -34.61351636 54.57535626 -36 56 C-35.67 56.66 -35.34 57.32 -35 58 C-32.26026431 58.62037352 -29.58226608 59.12734972 -26.8125 59.5625 C-26.05646484 59.68818359 -25.30042969 59.81386719 -24.52148438 59.94335938 C-22.34882869 60.30327025 -20.17461572 60.65216394 -18 61 C-15.99982187 61.33226281 -13.9997408 61.66511518 -12 62 C-16.38187346 52.63300914 -16.38187346 52.63300914 -22 44 C-24.39814937 43.77289795 -24.39814937 43.77289795 -26.8203125 46.625 Z " fill="#00ADEE" transform="translate(93,4)"/>
<path d="M0 0 C15.38426104 10.46129751 29.68306562 26.33232256 38 43 C38 43.66 38 44.32 38 45 C38.53367187 45.15855469 39.06734375 45.31710938 39.6171875 45.48046875 C45.74868303 47.40053915 51.32459514 50.00234357 57 53 C57 53.33 57 53.66 57 54 C52.38 54 47.76 54 43 54 C43.474375 55.670625 43.94875 57.34125 44.4375 59.0625 C48.01282954 72.31820293 48.7643418 86.54637093 42.93359375 99.33984375 C40.85910403 102.68778261 39.24846624 103.92013585 35.5 105.125 C31.43569573 104.97984628 30.09241762 104.61666106 27 102 C21.53852578 96.05810519 19.2323969 89.7775115 17 82.125 C16.3239941 79.90722338 15.64690163 77.68977769 14.96875 75.47265625 C14.64003906 74.38227051 14.31132813 73.29188477 13.97265625 72.16845703 C12.33783212 66.84296817 10.53348828 61.57618837 8.7265625 56.30712891 C7 51.20867714 7 51.20867714 7 49 C-8.05599353 50.30307532 -22.5896501 52.21174628 -37.21459961 56.10595703 C-38.19565674 56.36489746 -39.17671387 56.62383789 -40.1875 56.890625 C-41.04730469 57.12813477 -41.90710937 57.36564453 -42.79296875 57.61035156 C-45 58 -45 58 -48 57 C-42.5800095 47.42616432 -37.16875331 38.39389822 -30 30 C-28.99013497 28.67412278 -27.98691406 27.34304818 -27 26 C-18.5653016 26.97283638 -10.2519027 27.93702433 -2 30 C-2.83144531 28.57107422 -2.83144531 28.57107422 -3.6796875 27.11328125 C-4.41163189 25.84645443 -5.14339305 24.57952173 -5.875 23.3125 C-6.23980469 22.68666016 -6.60460937 22.06082031 -6.98046875 21.41601562 C-8.93741197 18.01805058 -10.65607739 14.69932381 -12 11 C-8.17426612 7.07503959 -4.38002676 3.31820209 0 0 Z " fill="#EA038B" transform="translate(82,35)"/>
<path d="M0 0 C-2.09439232 3.6569797 -4.44199402 6.89165491 -7.0625 10.1875 C-10.65132042 14.95480122 -13.74619351 19.79033838 -16.62109375 25.015625 C-17.26056946 26.17269203 -17.26056946 26.17269203 -17.91296387 27.35313416 C-23.83555169 38.20490729 -29.08966306 49.39443399 -34.42626953 60.54174805 C-35.80003852 63.40655899 -37.18096806 66.26783299 -38.5625 69.12890625 C-38.98015625 70.00785049 -39.3978125 70.88679474 -39.828125 71.79237366 C-40.21613281 72.59509201 -40.60414062 73.39781036 -41.00390625 74.22485352 C-41.34236572 74.9322316 -41.6808252 75.63960968 -42.02954102 76.36842346 C-43 78 -43 78 -45 79 C-43.17244175 65.21024231 -40.87973819 51.60932111 -38 38 C-39.01320313 37.81824219 -39.01320313 37.81824219 -40.046875 37.6328125 C-40.93890625 37.46523437 -41.8309375 37.29765625 -42.75 37.125 C-43.63171875 36.96257812 -44.5134375 36.80015625 -45.421875 36.6328125 C-49.71321322 35.57948403 -51.50857731 34.73713403 -54 31 C-54.97801559 25.00965453 -53.00250216 21.25444258 -49.828125 16.359375 C-47.01465625 12.72831704 -43.92349836 10.34427272 -40 8 C-39.24847656 7.54882812 -38.49695312 7.09765625 -37.72265625 6.6328125 C-25.65871321 0.02403982 -13.39265487 -0.43305591 0 0 Z " fill="#2F3494" transform="translate(55,61)"/>
<path d="M0 0 C7.62999776 -0.19585021 14.99440238 0.57021712 22.5625 1.5 C23.76197266 1.64308594 24.96144531 1.78617187 26.19726562 1.93359375 C29.13210815 2.28437174 32.06628323 2.63994859 35 3 C40.06324565 18.66073656 43.0717492 34.67773711 35.93359375 50.33984375 C33.85910403 53.68778261 32.24846624 54.92013585 28.5 56.125 C24.43569573 55.97984628 23.09241762 55.61666106 20 53 C14.53852578 47.05810519 12.2323969 40.7775115 10 33.125 C9.3239941 30.90722338 8.64690163 28.68977769 7.96875 26.47265625 C7.64003906 25.38227051 7.31132813 24.29188477 6.97265625 23.16845703 C5.33783212 17.84296817 3.53348828 12.57618837 1.7265625 7.30712891 C0 2.20867714 0 2.20867714 0 0 Z " fill="#FEC013" transform="translate(89,84)"/>
<path d="M0 0 C112.86 0 225.72 0 342 0 C342 1.32 342 2.64 342 4 C229.14 4 116.28 4 0 4 C0 2.68 0 1.36 0 0 Z " fill="#797B7F" transform="translate(156,86)"/>
<path d="M0 0 C2.9885823 1.31435242 4.78274897 2.6046404 6.8046875 5.16015625 C7.30323242 5.785271 7.80177734 6.41038574 8.31542969 7.05444336 C8.83008789 7.71710205 9.34474609 8.37976074 9.875 9.0625 C10.40512695 9.73482666 10.93525391 10.40715332 11.48144531 11.09985352 C15.23744846 15.90566763 18.79181892 20.80781221 22 26 C19.33331633 32.06850715 14.85026366 37.75369787 9 41 C3.51820671 42.41881709 -2.17307823 42.09569984 -7.79150391 41.984375 C-12.2842974 42.01616129 -16.6394708 42.99070897 -21 44 C-17.12512297 28.64810625 -9.81001545 12.47446409 0 0 Z " fill="#00ADEE" transform="translate(48,20)"/>
<path d="M0 0 C14.9238937 10.14824772 30.56114484 26.40563079 38 43 C37.505 43.99 37.505 43.99 37 45 C33.19456315 43.6516472 29.3900899 42.30061141 25.58642578 40.94726562 C24.29696355 40.48887577 23.00725678 40.03117312 21.71728516 39.57421875 C18.61450115 38.47486404 15.51695617 37.36410069 12.42578125 36.23242188 C10.32387882 35.47626427 8.20838431 34.75532839 6.07421875 34.09570312 C-0.89109393 31.78615208 -3.72637513 28.3203128 -7.25 22 C-7.99443359 20.78957031 -7.99443359 20.78957031 -8.75390625 19.5546875 C-11.35316995 15.11763454 -11.35316995 15.11763454 -12 13 C-10.63472443 9.07199785 -7.96793697 6.94640659 -4.875 4.25 C-3.96492188 3.45078125 -3.05484375 2.6515625 -2.1171875 1.828125 C-1.06917969 0.92320313 -1.06917969 0.92320313 0 0 Z " fill="#FEBF13" transform="translate(82,35)"/>
<path d="M0 0 C0.7734375 0.07605469 1.546875 0.15210938 2.34375 0.23046875 C4.93423873 0.92971299 5.90811695 1.66542317 7.5 3.8125 C8.2361781 6.5153253 8.31792919 8.99040242 8.5 11.8125 C7.5 12.8125 7.5 12.8125 4.4375 12.875 C3.468125 12.854375 2.49875 12.83375 1.5 12.8125 C1.21125 12.173125 0.9225 11.53375 0.625 10.875 C-0.32823451 8.66043921 -0.32823451 8.66043921 -2.5 7.8125 C-2.5 9.4625 -2.5 11.1125 -2.5 12.8125 C-1.613125 13.039375 -0.72625 13.26625 0.1875 13.5 C4.39566126 15.16738465 7.46959982 17.43465342 9.3125 21.6875 C9.86152642 27.90979948 9.51427434 32.21456195 6.5 37.8125 C4.05002021 40.52497763 2.71925064 40.780609 -0.9375 41.3125 C-4.5 40.8125 -4.5 40.8125 -7.3125 38.875 C-10.0845905 34.9940733 -10.81996758 31.47122956 -11.5 26.8125 C-8.79120665 25.45810332 -6.49066732 25.74748549 -3.5 25.8125 C-3.17 27.7925 -2.84 29.7725 -2.5 31.8125 C-1.18 31.8125 0.14 31.8125 1.5 31.8125 C1.62944997 28.97711093 1.62944997 28.97711093 0.5 25.8125 C-1.25309502 24.44534025 -1.25309502 24.44534025 -3.375 23.3125 C-7.36020673 21.06992847 -9.06313987 19.3026879 -10.5 14.8125 C-11.06077045 9.5786425 -10.29925084 6.27056615 -7.5 1.8125 C-4.24139091 -0.35990606 -3.67949197 -0.42314158 0 0 Z " fill="#787A7E" transform="translate(354.5,35.1875)"/>
<path d="M0 0 C2.64 0 5.28 0 8 0 C10.14685277 6.10493174 11.41864052 12.29259837 12.71435547 18.62304688 C13.12551734 20.6275221 13.5448104 22.63017975 13.96484375 24.6328125 C14.35736328 26.53546875 14.35736328 26.53546875 14.7578125 28.4765625 C14.9964502 29.63236816 15.23508789 30.78817383 15.48095703 31.97900391 C16 35 16 35 16 39 C13.36 39 10.72 39 8 39 C7.67 37.35 7.34 35.7 7 34 C5.02 34 3.04 34 1 34 C0.505 36.475 0.505 36.475 0 39 C-2.64 39 -5.28 39 -8 39 C-6.86866039 30.35453911 -5.20902526 21.8462446 -3.4375 13.3125 C-3.10455933 11.69891602 -3.10455933 11.69891602 -2.76489258 10.05273438 C-2.55243896 9.04146484 -2.33998535 8.03019531 -2.12109375 6.98828125 C-1.9295874 6.07602783 -1.73808105 5.16377441 -1.54077148 4.22387695 C-1 2 -1 2 0 0 Z M3 16 C2.67 18.64 2.34 21.28 2 24 C3.32 24 4.64 24 6 24 C5.67 21.36 5.34 18.72 5 16 C4.34 16 3.68 16 3 16 Z " fill="#787A7E" transform="translate(163,36)"/>
<path d="M0 0 C2.31 0 4.62 0 7 0 C7 12.87 7 25.74 7 39 C4.33333333 39 1.66666667 39 -1 39 C-2.2065625 39.3403125 -2.2065625 39.3403125 -3.4375 39.6875 C-6 40 -6 40 -7.6875 38.9375 C-11.93059043 32.67389031 -11.61239781 25.24970931 -11 18 C-10.19555831 15.03239499 -9.22680878 12.22680878 -7 10 C-5.00041636 9.95919217 -2.99954746 9.95745644 -1 10 C-0.67 6.7 -0.34 3.4 0 0 Z M-3 19 C-4.22011391 20.00057979 -4.22011391 20.00057979 -4.1328125 21.99609375 C-4.13023437 22.80175781 -4.12765625 23.60742188 -4.125 24.4375 C-4.12757813 25.24058594 -4.13015625 26.04367188 -4.1328125 26.87109375 C-4.13578326 29.05397931 -4.13578326 29.05397931 -3 31 C-2.34 31 -1.68 31 -1 31 C0.20272819 28.59454362 0.10071472 27.05003047 0.0625 24.375 C0.05347656 23.55773437 0.04445312 22.74046875 0.03515625 21.8984375 C0.02355469 21.27195312 0.01195312 20.64546875 0 20 C-0.99 19.67 -1.98 19.34 -3 19 Z " fill="#787A7E" transform="translate(205,36)"/>
<path d="M0 0 C-2.77964994 11.39811763 -5.81151601 22.70963045 -9 34 C-15.03501488 34.13174149 -18.65435064 33.88665065 -24 31 C-26.57691616 27.13462576 -26.58559425 25.61155472 -26 21 C-22.0223962 11.75792057 -11.00425242 0 0 0 Z " fill="#EA038B" transform="translate(27,64)"/>
<path d="M0 0 C13.04508417 4.7777328 24.24033202 15.46310694 35 24 C35.5878125 24.46631836 36.175625 24.93263672 36.78125 25.41308594 C39.52991213 27.59753127 42.2704747 29.79169059 45 32 C43.83593677 33.16406323 42.67129061 34.32754865 41.50390625 35.48828125 C40.4596661 36.53794602 39.42652024 37.59871848 38.40234375 38.66796875 C36.97138652 40.14814809 35.48847779 41.57767678 34 43 C33.34 43 32.68 43 32 43 C30.39901928 40.92689642 28.90911039 38.84989473 27.4375 36.6875 C22.19523209 29.16416541 16.48038709 22.13716982 10.578125 15.12109375 C6.53399254 10.26416997 2.88051243 5.63578519 0 0 Z " fill="#018B4F" transform="translate(37,3)"/>
<path d="M0 0 C8.30424055 1.57698531 16.12782491 4.33785243 24.0625 7.1875 C24.74854309 7.43233124 25.43458618 7.67716248 26.14141846 7.92941284 C55.14840183 18.29680366 55.14840183 18.29680366 57 22 C50.91058538 22.1232675 45.07054354 21.65904748 39.03125 20.90625 C38.11033569 20.79526978 37.18942139 20.68428955 36.24060059 20.56994629 C33.32650752 20.21773954 30.41326583 19.85897834 27.5 19.5 C25.51307363 19.25867947 23.52609489 19.01778972 21.5390625 18.77734375 C16.69197144 18.1906758 11.84608873 17.5951337 7 17 C4.69 11.39 2.38 5.78 0 0 Z " fill="#ED2126" transform="translate(82,67)"/>
<path d="M0 0 C3 0 6 0 9 0 C9.99 -0.04125 10.98 -0.0825 12 -0.125 C15 0 15 0 17 2 C18.09099101 5.14859574 18.11605664 8.10980508 18.09765625 11.421875 C18.09443359 12.44667969 18.09121094 13.47148438 18.08789062 14.52734375 C18.07951172 15.59082031 18.07113281 16.65429688 18.0625 17.75 C18.05798828 18.82894531 18.05347656 19.90789062 18.04882812 21.01953125 C18.03705727 23.67974383 18.02061399 26.33984365 18 29 C15.69 29 13.38 29 11 29 C10.67 22.73 10.34 16.46 10 10 C7.93636319 14.12727362 7.57832417 17.26839651 7.375 21.75 C7.33632812 22.44738281 7.29765625 23.14476563 7.2578125 23.86328125 C7.16401376 25.57510818 7.08093826 27.28751682 7 29 C4.69 29 2.38 29 0 29 C0 19.43 0 9.86 0 0 Z " fill="#787A7E" transform="translate(235,46)"/>
<path d="M0 0 C2.31 0 4.62 0 7 0 C7.33 6.6 7.66 13.2 8 20 C9.54950268 18.45049732 9.21655193 16.90009406 9.31640625 14.74609375 C9.35830078 13.89208984 9.40019531 13.03808594 9.44335938 12.15820312 C9.48267578 11.26037109 9.52199219 10.36253906 9.5625 9.4375 C9.60568359 8.53580078 9.64886719 7.63410156 9.69335938 6.70507812 C9.79978142 4.47021515 9.90179988 2.23523692 10 0 C12.31 0 14.62 0 17 0 C17 9.57 17 19.14 17 29 C14.33333333 29 11.66666667 29 9 29 C8.195625 29.20625 7.39125 29.4125 6.5625 29.625 C4 30 4 30 1 28 C-0.0592918 24.82212459 -0.11458939 22.57411057 -0.09765625 19.23828125 C-0.09443359 18.12001953 -0.09121094 17.00175781 -0.08789062 15.84960938 C-0.07951172 14.68236328 -0.07113281 13.51511719 -0.0625 12.3125 C-0.05573242 10.54422852 -0.05573242 10.54422852 -0.04882812 8.74023438 C-0.03703273 5.82677211 -0.0205727 2.91341137 0 0 Z " fill="#787A7E" transform="translate(397,46)"/>
<path d="M0 0 C3.48675618 0.03124333 3.94836829 0.14813146 6.625 2.6875 C9.71747579 8.00655836 9.26566603 12.35621565 9.1875 18.375 C5.5575 18.375 1.9275 18.375 -1.8125 18.375 C-1.4825 19.695 -1.1525 21.015 -0.8125 22.375 C-0.1525 22.375 0.5075 22.375 1.1875 22.375 C1.5175 21.715 1.8475 21.055 2.1875 20.375 C4.4975 20.705 6.8075 21.035 9.1875 21.375 C8.34655619 24.52853929 7.68682382 26.84001019 5.4375 29.25 C2.37455028 30.78147486 0.57365656 30.92784189 -2.8125 30.375 C-6.83056338 27.45277209 -8.63035983 24.52141489 -9.59375 19.62109375 C-10.29192906 12.45229089 -9.40469962 6.97174328 -4.8125 1.375 C-3.8125 0.375 -3.8125 0.375 0 0 Z M-0.8125 7.375 C-1.1425 9.025 -1.4725 10.675 -1.8125 12.375 C-0.4925 12.375 0.8275 12.375 2.1875 12.375 C1.8575 10.725 1.5275 9.075 1.1875 7.375 C0.5275 7.375 -0.1325 7.375 -0.8125 7.375 Z " fill="#787A7E" transform="translate(223.8125,45.625)"/>
<path d="M0 0 C2.66666667 0 5.33333333 0 8 0 C9.4540625 -0.1546875 9.4540625 -0.1546875 10.9375 -0.3125 C11.948125 -0.209375 12.95875 -0.10625 14 0 C16.78015539 3.59071288 17.36485633 6.2572887 17.29296875 10.73828125 C17.28330078 11.80498047 17.27363281 12.87167969 17.26367188 13.97070312 C17.23853516 15.07349609 17.21339844 16.17628906 17.1875 17.3125 C17.16719727 18.99569336 17.16719727 18.99569336 17.14648438 20.71289062 C17.1112138 23.47575229 17.06192235 26.23762829 17 29 C14.69 29 12.38 29 10 29 C9.67 22.73 9.34 16.46 9 10 C8.67 10 8.34 10 8 10 C7.0672582 14.099361 6.71174738 18.12043288 6.4375 22.3125 C6.35371094 23.56675781 6.26992188 24.82101563 6.18359375 26.11328125 C6.12300781 27.06589844 6.06242187 28.01851562 6 29 C4.02 29 2.04 29 0 29 C0 19.43 0 9.86 0 0 Z " fill="#787A7E" transform="translate(462,46)"/>
<path d="M0 0 C3.50151453 3.40936941 4.88746086 6.25780758 5.203125 11.14453125 C5.21859375 12.35496094 5.2340625 13.56539062 5.25 14.8125 C5.27578125 16.01519531 5.3015625 17.21789062 5.328125 18.45703125 C4.96748706 22.35106229 4.0633185 24.69772623 2 28 C-1.49124017 30.32749345 -2.89222251 30.50299316 -7 30 C-9.92610291 27.72414218 -11.63949803 25.42169164 -13 22 C-13.30078125 18.7578125 -13.30078125 18.7578125 -13.3125 15.125 C-13.32925781 13.93132813 -13.34601563 12.73765625 -13.36328125 11.5078125 C-12.96409144 7.65327002 -12.03979372 5.27704565 -10 2 C-6.26744552 -0.48836965 -4.41559065 -0.54226552 0 0 Z M-5 8 C-6.23408207 10.46816414 -6.20197579 12.24661201 -6.25 15 C-6.27578125 15.886875 -6.3015625 16.77375 -6.328125 17.6875 C-6.21984375 18.450625 -6.1115625 19.21375 -6 20 C-4.515 20.99 -4.515 20.99 -3 22 C-1.28915301 16.48727081 -0.5393557 13.46809845 -3 8 C-3.66 8 -4.32 8 -5 8 Z " fill="#787A7E" transform="translate(326,46)"/>
<path d="M0 0 C2.66666667 0 5.33333333 0 8 0 C8.99 -0.04125 9.98 -0.0825 11 -0.125 C14 0 14 0 16 2 C17.09099101 5.14859574 17.11605664 8.10980508 17.09765625 11.421875 C17.09443359 12.44667969 17.09121094 13.47148438 17.08789062 14.52734375 C17.07951172 15.59082031 17.07113281 16.65429688 17.0625 17.75 C17.05798828 18.82894531 17.05347656 19.90789062 17.04882812 21.01953125 C17.03705727 23.67974383 17.02061399 26.33984365 17 29 C14.69 29 12.38 29 10 29 C9.67 22.73 9.34 16.46 9 10 C6.93636319 14.12727362 6.57832417 17.26839651 6.375 21.75 C6.33632813 22.44738281 6.29765625 23.14476563 6.2578125 23.86328125 C6.16401376 25.57510818 6.08093826 27.28751682 6 29 C4.02 29 2.04 29 0 29 C0 19.43 0 9.86 0 0 Z " fill="#787A7E" transform="translate(282,46)"/>
<path d="M0 0 C4.41025094 0.77372823 5.81991731 2.15643954 8.5625 5.625 C9.70580513 9.05491538 9.76631651 11.8236416 9.8125 15.4375 C9.83828125 16.64019531 9.8640625 17.84289062 9.890625 19.08203125 C9.52998706 22.97606229 8.6258185 25.32272623 6.5625 28.625 C3.04425489 30.97049674 1.70474306 31.20491403 -2.4375 30.625 C-6.59674545 27.88367913 -7.83878788 25.08085502 -8.875 20.375 C-9.82381674 13.6700284 -9.01253668 8.48339991 -5.75 2.5625 C-3.4375 0.625 -3.4375 0.625 0 0 Z M-0.4375 8.625 C-2.92637372 13.30993876 -2.29437773 16.5694214 -1.4375 21.625 C-0.4475 21.625 0.5425 21.625 1.5625 21.625 C2.80988223 20.59878893 2.80988223 20.59878893 2.6953125 18.41015625 C2.69273437 17.51167969 2.69015625 16.61320312 2.6875 15.6875 C2.69136719 14.34365234 2.69136719 14.34365234 2.6953125 12.97265625 C2.71671413 10.60344445 2.71671413 10.60344445 1.5625 8.625 C0.9025 8.625 0.2425 8.625 -0.4375 8.625 Z " fill="#787A7E" transform="translate(449.4375,45.375)"/>
<path d="M0 0 C4.41025094 0.77372823 5.81991731 2.15643954 8.5625 5.625 C10.60481601 11.75194804 10.69178762 19.76555997 8.25 25.8125 C6.5625 28.625 6.5625 28.625 3.5625 30.625 C-0.28304404 31.21019148 -1.91569299 30.96891826 -5.1875 28.8125 C-8.77781489 23.72622058 -9.71254313 18.27353132 -9.24609375 12.0859375 C-8.13614488 6.10621294 -6.52906805 1.18710328 0 0 Z M-0.4375 8.625 C-2.3453584 11.7999094 -2.5984041 13.73085211 -2.0625 17.375 C-1.95164062 18.17421875 -1.84078125 18.9734375 -1.7265625 19.796875 C-1.63117188 20.40015625 -1.53578125 21.0034375 -1.4375 21.625 C-0.4475 21.625 0.5425 21.625 1.5625 21.625 C2.80988223 20.59878893 2.80988223 20.59878893 2.6953125 18.41015625 C2.69273437 17.51167969 2.69015625 16.61320312 2.6875 15.6875 C2.69136719 14.34365234 2.69136719 14.34365234 2.6953125 12.97265625 C2.71671413 10.60344445 2.71671413 10.60344445 1.5625 8.625 C0.9025 8.625 0.2425 8.625 -0.4375 8.625 Z " fill="#787A7E" transform="translate(374.4375,45.375)"/>
<path d="M0 0 C2.65351279 1.62634655 2.91506162 2.66796815 3.6875 5.6875 C3.790625 6.450625 3.89375 7.21375 4 8 C0.625 8.625 0.625 8.625 -3 9 C-3.66 8.34 -4.32 7.68 -5 7 C-5 7.66 -5 8.32 -5 9 C-3.88625 9.433125 -2.7725 9.86625 -1.625 10.3125 C2 12 2 12 4 15 C4.80893707 20.02392499 4.77056874 23.83247161 1.9375 28.125 C-1.74894297 30.4780487 -3.70135466 30.70341469 -8 30 C-10.8543616 27.97190097 -11.80052255 26.65981002 -12.8125 23.3125 C-12.874375 22.549375 -12.93625 21.78625 -13 21 C-12 20 -12 20 -8.9375 19.9375 C-7.4834375 19.9684375 -7.4834375 19.9684375 -6 20 C-5.67 20.66 -5.34 21.32 -5 22 C-4.34 22 -3.68 22 -3 22 C-3 21.34 -3 20.68 -3 20 C-3.56589844 19.73445313 -4.13179688 19.46890625 -4.71484375 19.1953125 C-5.81505859 18.66550781 -5.81505859 18.66550781 -6.9375 18.125 C-7.66839844 17.77695312 -8.39929688 17.42890625 -9.15234375 17.0703125 C-11 16 -11 16 -12 14 C-12.48271374 9.45774281 -12.80320251 5.4056044 -10.5 1.375 C-6.7296686 -0.69868227 -4.28535449 -0.4761505 0 0 Z " fill="#787A7E" transform="translate(494,46)"/>
<path d="M0 0 C-3.08800208 6.39452787 -6.1854272 12.78442523 -9.28955078 19.17114258 C-10.34513138 21.34585968 -11.39852364 23.52164036 -12.44970703 25.69848633 C-13.95816668 28.82132479 -15.47437049 31.9402948 -16.9921875 35.05859375 C-17.69853836 36.52733192 -17.69853836 36.52733192 -18.41915894 38.02574158 C-19.07961716 39.37702904 -19.07961716 39.37702904 -19.75341797 40.75561523 C-20.13980438 41.55281479 -20.5261908 42.35001434 -20.92428589 43.17137146 C-22 45 -22 45 -24 46 C-22.57046905 35.21353921 -21.01401776 24.48403999 -18.875 13.8125 C-18.70452148 12.95817383 -18.53404297 12.10384766 -18.35839844 11.22363281 C-17.13598785 5.2719757 -17.13598785 5.2719757 -16 3 C-13.1640625 1.89453125 -13.1640625 1.89453125 -9.625 0.8125 C-8.46226563 0.44769531 -7.29953125 0.08289063 -6.1015625 -0.29296875 C-3 -1 -3 -1 0 0 Z " fill="#00ACEE" transform="translate(34,94)"/>
<path d="M0 0 C0 3.3 0 6.6 0 10 C1.32 10 2.64 10 4 10 C4 12.97 4 15.94 4 19 C2.68 19 1.36 19 0 19 C0 22.96 0 26.92 0 31 C0.99 31 1.98 31 3 31 C4.35439668 33.70879335 4.06501451 36.00933268 4 39 C-2.41510967 40.33143786 -2.41510967 40.33143786 -4.875 38.9375 C-8.24105018 33.14041357 -7.09437323 25.48029479 -7 19 C-7.66 19 -8.32 19 -9 19 C-9 16.03 -9 13.06 -9 10 C-8.34 10 -7.68 10 -7 10 C-7.12375 9.278125 -7.2475 8.55625 -7.375 7.8125 C-6.94315461 4.57365957 -6.47221354 4.2003872 -4.0625 2.1875 C-1 0 -1 0 0 0 Z " fill="#787A7E" transform="translate(425,36)"/>
<path d="M0 0 C0 3.3 0 6.6 0 10 C0.99 10 1.98 10 3 10 C3 12.97 3 15.94 3 19 C2.01 19 1.02 19 0 19 C0 22.96 0 26.92 0 31 C0.99 31 1.98 31 3 31 C3.09765625 37.15234375 3.09765625 37.15234375 3 39 C2 40 2 40 -0.875 40.375 C-4 40 -4 40 -5.68359375 37.99609375 C-7.36195651 34.17619986 -7.32987327 30.77251778 -7.1875 26.6875 C-7.17396484 25.94693359 -7.16042969 25.20636719 -7.14648438 24.44335938 C-7.11135979 22.62858925 -7.05755972 20.81419712 -7 19 C-7.66 19 -8.32 19 -9 19 C-9 16.03 -9 13.06 -9 10 C-8.34 10 -7.68 10 -7 10 C-7.1546875 8.9171875 -7.1546875 8.9171875 -7.3125 7.8125 C-6.87904855 3.91143697 -4.25901211 0 0 0 Z " fill="#787A7E" transform="translate(264,36)"/>
<path d="M0 0 C1.43088528 2.86177057 0.59991697 4.93375773 0 8 C-0.99 8 -1.98 8 -3 8 C-3 8.66 -3 9.32 -3 10 C-2.34 10.33 -1.68 10.66 -1 11 C-1 13.97 -1 16.94 -1 20 C-1.99 20 -2.98 20 -4 20 C-4 26.6 -4 33.2 -4 40 C-5.98 40 -7.96 40 -10 40 C-10 33.4 -10 26.8 -10 20 C-10.99 20 -11.98 20 -13 20 C-13 17.03 -13 14.06 -13 11 C-12.01 11 -11.02 11 -10 11 C-10.061875 9.741875 -10.12375 8.48375 -10.1875 7.1875 C-10.16934383 4.62294156 -10.1515987 3.28536227 -8.9375 1 C-5.97912322 -0.52690415 -3.26283401 -0.18468872 0 0 Z " fill="#787A7E" transform="translate(313,35)"/>
<path d="M0 0 C2.64 0 5.28 0 8 0 C8 12.87 8 25.74 8 39 C5.36 39 2.72 39 0 39 C0 26.13 0 13.26 0 0 Z " fill="#787A7F" transform="translate(270,36)"/>
<path d="M0 0 C2.31 0 4.62 0 7 0 C7 12.87 7 25.74 7 39 C4.69 39 2.38 39 0 39 C0 26.13 0 13.26 0 0 Z " fill="#787A7E" transform="translate(387,36)"/>
<path d="M0 0 C4.29 0 8.58 0 13 0 C14.27351308 2.54702616 13.80191925 3.4282945 13.0625 6.125 C12.86785156 6.84945312 12.67320312 7.57390625 12.47265625 8.3203125 C12.31667969 8.87460937 12.16070312 9.42890625 12 10 C11.01 10 10.02 10 9 10 C8.0672582 14.099361 7.71174738 18.12043288 7.4375 22.3125 C7.35371094 23.56675781 7.26992187 24.82101563 7.18359375 26.11328125 C7.12300781 27.06589844 7.06242188 28.01851562 7 29 C4.69 29 2.38 29 0 29 C0 19.43 0 9.86 0 0 Z " fill="#787A7E" transform="translate(180,46)"/>
<path d="M0 0 C1.32 0 2.64 0 4 0 C4.99 2.31 5.98 4.62 7 7 C7.99 4.69 8.98 2.38 10 0 C11.875 0.125 11.875 0.125 14 1 C15.25 4.0625 15.25 4.0625 16 7 C16.99 4.69 17.98 2.38 19 0 C20.32 0 21.64 0 23 0 C22.54762239 1.91808109 22.08785537 3.83442033 21.625 5.75 C21.24214844 7.35101563 21.24214844 7.35101563 20.8515625 8.984375 C20.12466459 11.55852722 19.2973776 13.67600186 18 16 C16.68 16 15.36 16 14 16 C13.34 13.69 12.68 11.38 12 9 C10.25372522 11.61941217 9.61277612 13.03824877 9 16 C7.35 15.67 5.7 15.34 4 15 C3.3299166 12.87607494 2.66403203 10.75082476 2 8.625 C1.62875 7.44164063 1.2575 6.25828125 0.875 5.0390625 C0 2 0 2 0 0 Z " fill="#0071BB" transform="translate(329,102)"/>
<path d="M0 0 C2.31 0 4.62 0 7 0 C7 9.57 7 19.14 7 29 C4.69 29 2.38 29 0 29 C0 19.43 0 9.86 0 0 Z " fill="#787A7F" transform="translate(431,46)"/>
<path d="M0 0 C1.051875 -0.00386719 1.051875 -0.00386719 2.125 -0.0078125 C4 0.125 4 0.125 6 1.125 C5.67 2.115 5.34 3.105 5 4.125 C3.88625 4.08375 2.7725 4.0425 1.625 4 C-2.04366025 3.71378141 -2.04366025 3.71378141 -4 6.125 C-3.67801034 9.22426819 -3.67801034 9.22426819 -3 12.125 C-0.03 12.62 -0.03 12.62 3 13.125 C3 12.135 3 11.145 3 10.125 C2.01 10.125 1.02 10.125 0 10.125 C0 9.135 0 8.145 0 7.125 C2.31 7.125 4.62 7.125 7 7.125 C7 9.765 7 12.405 7 15.125 C2.67899104 17.35097431 -0.30317025 17.25571827 -5 16.125 C-7.89479637 14.38812218 -8.01335881 13.07347318 -8.875 9.75 C-9.01384714 5.72343289 -8.47120257 4.23688472 -6 1.125 C-3.75487738 0.00243869 -2.48543351 -0.00913762 0 0 Z " fill="#0071BB" transform="translate(383,101.875)"/>
<path d="M0 0 C0.90492188 0.02320312 1.80984375 0.04640625 2.7421875 0.0703125 C4.10730469 0.09738281 4.10730469 0.09738281 5.5 0.125 C6.19867188 0.14820312 6.89734375 0.17140625 7.6171875 0.1953125 C7.69852541 2.11127218 7.75653117 4.02823182 7.8046875 5.9453125 C7.83949219 7.01265625 7.87429688 8.08 7.91015625 9.1796875 C7.58274484 12.54984232 7.08808149 13.90091094 4.6171875 16.1953125 C1.85576447 16.72330926 -0.54646795 16.38130231 -3.3828125 16.1953125 C-3.3828125 14.8753125 -3.3828125 13.5553125 -3.3828125 12.1953125 C-1.4028125 12.1953125 0.5771875 12.1953125 2.6171875 12.1953125 C1.6684375 11.9271875 0.7196875 11.6590625 -0.2578125 11.3828125 C-3.3828125 10.1953125 -3.3828125 10.1953125 -5.3828125 7.1953125 C-4.99412171 3.21123191 -4.47217555 0.36657177 0 0 Z M-0.3828125 3.1953125 C-0.7128125 4.5153125 -1.0428125 5.8353125 -1.3828125 7.1953125 C-0.0628125 7.5253125 1.2571875 7.8553125 2.6171875 8.1953125 C2.9471875 6.8753125 3.2771875 5.5553125 3.6171875 4.1953125 C2.2971875 3.8653125 0.9771875 3.5353125 -0.3828125 3.1953125 Z " fill="#0070BB" transform="translate(251.3828125,106.8046875)"/>
<path d="M0 0 C1.32 0 2.64 0 4 0 C4.33 1.32 4.66 2.64 5 4 C5.66 2.68 6.32 1.36 7 0 C8.32 0 9.64 0 11 0 C11.66 0.99 12.32 1.98 13 3 C13.33 2.01 13.66 1.02 14 0 C15.32 0 16.64 0 18 0 C17.01 3.63 16.02 7.26 15 11 C13.35 10.67 11.7 10.34 10 10 C9.67 9.01 9.34 8.02 9 7 C8.34 8.32 7.68 9.64 7 11 C5.68 11 4.36 11 3 11 C2.49384702 9.73160474 1.99530901 8.46016898 1.5 7.1875 C1.2215625 6.47980469 0.943125 5.77210937 0.65625 5.04296875 C0 3 0 3 0 0 Z " fill="#0071BB" transform="translate(416,107)"/>
<path d="M0 0 C2 2 2 2 2.1953125 3.9453125 C2.13020833 5.96354167 2.06510417 7.98177083 2 10 C-3.24024641 12.14373717 -3.24024641 12.14373717 -6.3125 11.5625 C-8 10 -8 10 -8.9375 6.5625 C-9 3 -9 3 -7.9375 1.0625 C-5.17331023 -0.45334601 -3.09771665 -0.32954432 0 0 Z M-5 7 C-1 8 -1 8 -1 8 Z " fill="#0070BB" transform="translate(308,107)"/>
<path d="M0 0 C2 2 2 2 2.125 4.4375 C2.08375 5.283125 2.0425 6.12875 2 7 C2 7.99 2 8.98 2 10 C-1.48952818 11.54188454 -3.20095232 12.27792963 -6.875 11 C-9 9 -9 9 -9.5 6 C-9 3 -9 3 -7.875 1.125 C-5.15781176 -0.50531294 -3.10347254 -0.33015665 0 0 Z M-5 7 C-4.34 7.66 -3.68 8.32 -3 9 C-2.34 8.34 -1.68 7.68 -1 7 C-2.32 7 -3.64 7 -5 7 Z " fill="#0070BB" transform="translate(362,107)"/>
<path d="M0 0 C0.54372951 3.05847848 1 5.88772805 1 9 C-1.6875 10.1875 -1.6875 10.1875 -5 11 C-7.99014813 9.80394075 -9.52092931 8.99007943 -10.9375 6.0625 C-11.01581949 3.47795669 -10.40808547 2.14918308 -9 0 C-5.93109813 -1.53445094 -3.29905734 -0.54984289 0 0 Z M-6 6 C-5.34 6.66 -4.68 7.32 -4 8 C-3.34 7.34 -2.68 6.68 -2 6 C-3.32 6 -4.64 6 -6 6 Z " fill="#0070BB" transform="translate(272,108)"/>
<path d="M0 0 C1.9375 1.0625 1.9375 1.0625 3 3 C2.6875 6.6875 2.6875 6.6875 2 10 C-1.48952818 11.54188454 -3.20095232 12.27792963 -6.875 11 C-9 9 -9 9 -9.5 6 C-9 3 -9 3 -7.875 1.125 C-5.11909116 -0.52854531 -3.14924548 -0.39365568 0 0 Z M-4 3 C-4.66 4.32 -5.32 5.64 -6 7 C-3.525 7.495 -3.525 7.495 -1 8 C-1.33 6.35 -1.66 4.7 -2 3 C-2.66 3 -3.32 3 -4 3 Z " fill="#0071BB" transform="translate(241,107)"/>
<path d="M0 0 C1.875 1.125 1.875 1.125 3 3 C3.5 6 3.5 6 3 9 C0.875 11 0.875 11 -2 12 C-5.3125 11.1875 -5.3125 11.1875 -8 10 C-9.32850242 3.59903382 -9.32850242 3.59903382 -7.9375 1.0625 C-5.13281671 -0.47555213 -3.14485925 -0.39310741 0 0 Z M-4 3 C-4.33 4.65 -4.66 6.3 -5 8 C-3.35 7.67 -1.7 7.34 0 7 C-0.66 5.68 -1.32 4.36 -2 3 C-2.66 3 -3.32 3 -4 3 Z " fill="#0070BB" transform="translate(411,107)"/>
<path d="M0 0 C0.99 0 1.98 0 3 0 C3 1.98 3 3.96 3 6 C3.78375 5.95875 4.5675 5.9175 5.375 5.875 C8 6 8 6 10 8 C10.1953125 10.1640625 10.1953125 10.1640625 10.125 12.625 C10.10695313 13.44226563 10.08890625 14.25953125 10.0703125 15.1015625 C10.03550781 16.04128906 10.03550781 16.04128906 10 17 C9.01 17 8.02 17 7 17 C6.67 14.36 6.34 11.72 6 9 C5.01 9.495 5.01 9.495 4 10 C3.59270772 12.32156597 3.25561323 14.6568787 3 17 C2.01 17 1.02 17 0 17 C0 11.39 0 5.78 0 0 Z " fill="#0070BC" transform="translate(286,101)"/>
<path d="M0 0 C4.21654356 1.48635116 7.62478605 3.61249159 11.3125 6.125 C12.38113281 6.84945313 13.44976562 7.57390625 14.55078125 8.3203125 C15.76314453 9.15175781 15.76314453 9.15175781 17 10 C15.6975667 12.90542812 14.29113732 14.8092961 12 17 C9.99614748 14.3570642 7.9975731 11.71018417 6 9.0625 C5.42765625 8.30775391 4.8553125 7.55300781 4.265625 6.77539062 C3.72421875 6.05673828 3.1828125 5.33808594 2.625 4.59765625 C2.12226562 3.93258057 1.61953125 3.26750488 1.1015625 2.58227539 C0 1 0 1 0 0 Z " fill="#FCC013" transform="translate(37,3)"/>
<path d="M0 0 C4.62 0 9.24 0 14 0 C14 0.99 14 1.98 14 3 C12.35 3 10.7 3 9 3 C9 7.29 9 11.58 9 16 C7.68 16 6.36 16 5 16 C5 11.71 5 7.42 5 3 C3.35 3 1.7 3 0 3 C0 2.01 0 1.02 0 0 Z " fill="#0070BB" transform="translate(219,102)"/>
<path d="M0 0 C12.66970387 5.18678815 12.66970387 5.18678815 18 8 C18 8.33 18 8.66 18 9 C7.63636364 9.18181818 7.63636364 9.18181818 3 8 C0.65114231 5.12075508 0 3.72527067 0 0 Z " fill="#EA028B" transform="translate(121,80)"/>
<path d="M0 0 C0.99 0 1.98 0 3 0 C3 0.99 3 1.98 3 3 C3.99 3 4.98 3 6 3 C6 3.99 6 4.98 6 6 C5.01 6 4.02 6 3 6 C3 7.65 3 9.3 3 11 C3.99 11 4.98 11 6 11 C5.67 12.32 5.34 13.64 5 15 C3.35 14.67 1.7 14.34 0 14 C0 11.36 0 8.72 0 6 C-0.66 6 -1.32 6 -2 6 C-2 5.01 -2 4.02 -2 3 C-1.34 3 -0.68 3 0 3 C0 2.01 0 1.02 0 0 Z " fill="#0071BB" transform="translate(277,104)"/>
<path d="M0 0 C2.64 0 5.28 0 8 0 C8 0.99 8 1.98 8 3 C7.01 3.33 6.02 3.66 5 4 C4.67 6.31 4.34 8.62 4 11 C2.68 11 1.36 11 0 11 C0 7.37 0 3.74 0 0 Z " fill="#0070BB" transform="translate(393,107)"/>
<path d="M0 0 C2.64 0 5.28 0 8 0 C8 0.99 8 1.98 8 3 C7.01 3.33 6.02 3.66 5 4 C4.67 6.31 4.34 8.62 4 11 C2.68 11 1.36 11 0 11 C0 7.37 0 3.74 0 0 Z " fill="#0070BB" transform="translate(313,107)"/>
<path d="M0 0 C2.31 0 4.62 0 7 0 C7 2.64 7 5.28 7 8 C4.69 8 2.38 8 0 8 C0 5.36 0 2.72 0 0 Z " fill="#787B7F" transform="translate(431,36)"/>
</svg>
